<svg width="83" height="143" viewBox="0 0 83 143" fill="none" xmlns="http://www.w3.org/2000/svg">
<path opacity="0.25" d="M41.2712 143L3.27122 50C-6.72878 30 6.27122 0 41.2712 0C76.2712 0 89.2712 30 79.2712 50L41.2712 143Z" fill="black"/>
<path d="M41.2712 140L6.27119 53C-3.72881 35 9.27119 5 41.2712 5C73.2712 5 86.2712 35 76.2712 53L41.2712 140Z" fill="url(#paint0_linear_415_1545)"/>
<path opacity="0.35" d="M41.2712 131L16.2712 55C11.2712 43 19.2712 21 41.2712 21C63.2712 21 71.2712 43 66.2712 55L41.2712 131Z" fill="black"/>
<path opacity="0.9" d="M41.2712 73C59.4966 73 74.2712 58.2254 74.2712 40C74.2712 21.7746 59.4966 7 41.2712 7C23.0458 7 8.27124 21.7746 8.27124 40C8.27124 58.2254 23.0458 73 41.2712 73Z" fill="url(#paint1_linear_415_1545)"/>
<path d="M41.2712 68C56.7352 68 69.2712 55.464 69.2712 40C69.2712 24.536 56.7352 12 41.2712 12C25.8073 12 13.2712 24.536 13.2712 40C13.2712 55.464 25.8073 68 41.2712 68Z" fill="url(#paint2_radial_415_1545)"/>
<path d="M33.2712 40C42.1078 40 49.2712 35.5228 49.2712 30C49.2712 24.4772 42.1078 20 33.2712 20C24.4347 20 17.2712 24.4772 17.2712 30C17.2712 35.5228 24.4347 40 33.2712 40Z" fill="url(#paint3_radial_415_1545)"/>
<g opacity="0.6" filter="url(#filter0_f_415_1545)">
<path d="M63.2713 20.2008C63.934 20.2008 64.4713 19.6635 64.4713 19.0008C64.4713 18.338 63.934 17.8008 63.2713 17.8008C62.6085 17.8008 62.0713 18.338 62.0713 19.0008C62.0713 19.6635 62.6085 20.2008 63.2713 20.2008Z" fill="white"/>
</g>
<path d="M58.2712 32C56.4104 29.2326 53.8842 26.9625 50.918 25.3922C47.9517 23.8218 44.6376 23 41.2712 23C37.9048 23 34.5907 23.8218 31.6245 25.3922C28.6583 26.9625 26.1321 29.2326 24.2712 32" stroke="#AAFF00" stroke-width="3" stroke-linecap="round"/>
<path d="M52.2712 36C51.0672 34.1551 49.4326 32.6417 47.5132 31.5948C45.5939 30.5479 43.4495 30 41.2712 30C39.093 30 36.9486 30.5479 35.0292 31.5948C33.1099 32.6417 31.4753 34.1551 30.2712 36" stroke="#AAFF00" stroke-width="3" stroke-linecap="round"/>
<path d="M48.2712 42C47.5597 40.7701 46.5938 39.7611 45.4597 39.0632C44.3255 38.3653 43.0584 38 41.7712 38C40.4841 38 39.2169 38.3653 38.0828 39.0632C36.9486 39.7611 35.9827 40.7701 35.2712 42" stroke="#AAFF00" stroke-width="3" stroke-linecap="round"/>
<circle cx="41.7712" cy="49.5" r="4.5" fill="#AAFF00"/>
<defs>
<filter id="filter0_f_415_1545" x="57.0713" y="12.8008" width="12.3999" height="12.4004" filterUnits="userSpaceOnUse" color-interpolation-filters="sRGB">
<feFlood flood-opacity="0" result="BackgroundImageFix"/>
<feBlend mode="normal" in="SourceGraphic" in2="BackgroundImageFix" result="shape"/>
<feGaussianBlur stdDeviation="2.5" result="effect1_foregroundBlur_415_1545"/>
</filter>
<linearGradient id="paint0_linear_415_1545" x1="2.96802" y1="5" x2="2.96802" y2="13505" gradientUnits="userSpaceOnUse">
<stop stop-color="#7CFF5A"/>
<stop offset="0.35" stop-color="#2ECC40"/>
<stop offset="0.7" stop-color="#1B5E20"/>
<stop offset="1" stop-color="#0B3D0B"/>
</linearGradient>
<linearGradient id="paint1_linear_415_1545" x1="8.27124" y1="7" x2="8.27124" y2="6607" gradientUnits="userSpaceOnUse">
<stop stop-color="#A8FF9A" stop-opacity="0.9"/>
<stop offset="1" stop-color="#2FAE44" stop-opacity="0.9"/>
</linearGradient>
<radialGradient id="paint2_radial_415_1545" cx="0" cy="0" r="1" gradientUnits="userSpaceOnUse" gradientTransform="translate(1973.27 1692) scale(3640)">
<stop stop-color="#3A3A3A"/>
<stop offset="0.55" stop-color="#101010"/>
<stop offset="1"/>
</radialGradient>
<radialGradient id="paint3_radial_415_1545" cx="0" cy="0" r="1" gradientUnits="userSpaceOnUse" gradientTransform="translate(977.271 520) scale(1280 800)">
<stop stop-color="white" stop-opacity="0.45"/>
<stop offset="1" stop-color="white" stop-opacity="0"/>
</radialGradient>
</defs>
</svg>
